<svg width="60" height="60" viewBox="0 0 60 60" fill="none" xmlns="http://www.w3.org/2000/svg">
<g clip-path="url(#clip0_185_268)">
<path d="M30 2.50004C24.561 2.50004 19.2442 4.11289 14.7218 7.13463C10.1995 10.1564 6.67474 14.4513 4.59333 19.4762C2.51192 24.5012 1.96732 30.0305 3.02842 35.365C4.08951 40.6995 6.70863 45.5995 10.5546 49.4455C14.4005 53.2914 19.3006 55.9105 24.635 56.9716C29.9695 58.0327 35.4988 57.4881 40.5238 55.4067C45.5488 53.3253 49.8437 49.8006 52.8654 45.2782C55.8872 40.7559 57.5 35.439 57.5 30C57.5166 26.3841 56.8166 22.8006 55.4404 19.4567C54.0643 16.1128 52.0393 13.0746 49.4824 10.5177C46.9254 7.96079 43.8873 5.93579 40.5434 4.55965C37.1994 3.1835 33.616 2.48349 30 2.50004ZM43.375 18.375L35 35L18.375 43.375C18.131 43.4598 17.8681 43.4741 17.6164 43.4163C17.3646 43.3585 17.1343 43.231 16.9516 43.0484C16.769 42.8658 16.6415 42.6354 16.5837 42.3837C16.526 42.1319 16.5403 41.869 16.625 41.625L25 25L41.625 16.625C41.869 16.5403 42.1319 16.526 42.3836 16.5838C42.6354 16.6415 42.8658 16.769 43.0484 16.9517C43.231 17.1343 43.3585 17.3647 43.4163 17.6164C43.4741 17.8681 43.4598 18.1311 43.375 18.375ZM30 27.5C29.5056 27.5 29.0222 27.6467 28.6111 27.9214C28.2 28.1961 27.8795 28.5865 27.6903 29.0433C27.5011 29.5001 27.4516 30.0028 27.548 30.4878C27.6445 30.9727 27.8826 31.4182 28.2322 31.7678C28.5819 32.1174 29.0273 32.3555 29.5123 32.452C29.9972 32.5485 30.4999 32.499 30.9567 32.3097C31.4135 32.1205 31.804 31.8001 32.0787 31.389C32.3534 30.9778 32.5 30.4945 32.5 30C32.5 29.337 32.2366 28.7011 31.7678 28.2323C31.2989 27.7634 30.6631 27.5 30 27.5Z" fill="#7359E3"/>
<path d="M30 27.5C29.5055 27.5 29.0222 27.6466 28.6111 27.9213C28.2 28.196 27.8795 28.5865 27.6903 29.0433C27.5011 29.5001 27.4516 30.0028 27.548 30.4877C27.6445 30.9727 27.8826 31.4181 28.2322 31.7678C28.5819 32.1174 29.0273 32.3555 29.5123 32.452C29.9972 32.5484 30.4999 32.4989 30.9567 32.3097C31.4135 32.1205 31.804 31.8 32.0787 31.3889C32.3534 30.9778 32.5 30.4945 32.5 30C32.5 29.337 32.2366 28.7011 31.7678 28.2322C31.2989 27.7634 30.663 27.5 30 27.5ZM30 27.5C29.5055 27.5 29.0222 27.6466 28.6111 27.9213C28.2 28.196 27.8795 28.5865 27.6903 29.0433C27.5011 29.5001 27.4516 30.0028 27.548 30.4877C27.6445 30.9727 27.8826 31.4181 28.2322 31.7678C28.5819 32.1174 29.0273 32.3555 29.5123 32.452C29.9972 32.5484 30.4999 32.4989 30.9567 32.3097C31.4135 32.1205 31.804 31.8 32.0787 31.3889C32.3534 30.9778 32.5 30.4945 32.5 30C32.5 29.337 32.2366 28.7011 31.7678 28.2322C31.2989 27.7634 30.663 27.5 30 27.5Z" fill="black"/>
</g>
<defs>
<clipPath id="clip0_185_268">
<rect width="60" height="60" fill="white"/>
</clipPath>
</defs>
</svg>
