<svg width="400" height="250" viewBox="0 0 400 250" fill="none" xmlns="http://www.w3.org/2000/svg">
<rect width="400" height="250" fill="black"/>
<rect x="69" y="24" width="298" height="23" rx="5" fill="white"/>
<rect x="282.5" y="78.5" width="84" height="142" fill="black" stroke="white"/>
<rect x="160" y="81" width="110" height="13" fill="#51259A"/>
<rect x="160" y="157" width="110" height="13" fill="#51259A"/>
<rect x="160" y="98" width="73" height="13" fill="#D9D9D9"/>
<rect x="160" y="174" width="73" height="13" fill="#D9D9D9"/>
<rect x="45" y="78" width="107" height="67" fill="#292626"/>
<rect x="45" y="154" width="107" height="67" fill="#292626"/>
<path d="M55.1086 37.1173L58 40M56.3333 34.1667C56.3333 36.4678 54.4678 38.3333 52.1667 38.3333C49.8655 38.3333 48 36.4678 48 34.1667C48 31.8655 49.8655 30 52.1667 30C54.4678 30 56.3333 31.8655 56.3333 34.1667Z" stroke="white" stroke-width="2" stroke-linecap="round" stroke-linejoin="round"/>
</svg>
