<svg width="400" height="250" viewBox="0 0 400 250" fill="none" xmlns="http://www.w3.org/2000/svg">
<rect x="0.5" y="0.5" width="399" height="249" rx="4.5" fill="white" stroke="#DCD8D8"/>
<path d="M174.148 80V68.3636H178.602C179.443 68.3636 180.142 68.4962 180.699 68.7614C181.259 69.0227 181.678 69.3807 181.955 69.8352C182.235 70.2898 182.375 70.8049 182.375 71.3807C182.375 71.8542 182.284 72.2595 182.102 72.5966C181.92 72.9299 181.676 73.2008 181.369 73.4091C181.062 73.6174 180.72 73.767 180.341 73.858V73.9716C180.754 73.9943 181.15 74.1212 181.528 74.3523C181.911 74.5795 182.223 74.9015 182.466 75.3182C182.708 75.7348 182.83 76.2386 182.83 76.8295C182.83 77.4318 182.684 77.9735 182.392 78.4545C182.1 78.9318 181.661 79.3087 181.074 79.5852C180.487 79.8617 179.748 80 178.858 80H174.148ZM176.256 78.2386H178.523C179.288 78.2386 179.839 78.0928 180.176 77.8011C180.517 77.5057 180.688 77.1269 180.688 76.6648C180.688 76.3201 180.602 76.0095 180.432 75.733C180.261 75.4527 180.019 75.233 179.705 75.0739C179.39 74.911 179.015 74.8295 178.58 74.8295H176.256V78.2386ZM176.256 73.3125H178.341C178.705 73.3125 179.032 73.2462 179.324 73.1136C179.616 72.9773 179.845 72.786 180.011 72.5398C180.182 72.2898 180.267 71.9943 180.267 71.6534C180.267 71.2027 180.108 70.8314 179.79 70.5398C179.475 70.2481 179.008 70.1023 178.386 70.1023H176.256V73.3125ZM188.436 80.1705C187.561 80.1705 186.805 79.9886 186.169 79.625C185.536 79.2576 185.05 78.7386 184.709 78.0682C184.368 77.3939 184.197 76.6004 184.197 75.6875C184.197 74.7898 184.368 74.0019 184.709 73.3239C185.054 72.642 185.535 72.1117 186.152 71.733C186.769 71.3504 187.495 71.1591 188.328 71.1591C188.866 71.1591 189.374 71.2462 189.851 71.4205C190.332 71.5909 190.756 71.8561 191.124 72.2159C191.495 72.5758 191.786 73.0341 191.999 73.5909C192.211 74.1439 192.317 74.803 192.317 75.5682V76.1989H185.163V74.8125H190.345C190.341 74.4186 190.256 74.0682 190.089 73.7614C189.923 73.4508 189.69 73.2064 189.391 73.0284C189.095 72.8504 188.75 72.7614 188.357 72.7614C187.936 72.7614 187.567 72.8636 187.249 73.0682C186.93 73.2689 186.682 73.5341 186.504 73.8636C186.33 74.1894 186.241 74.5473 186.237 74.9375V76.1477C186.237 76.6553 186.33 77.0909 186.516 77.4545C186.701 77.8144 186.961 78.0909 187.294 78.2841C187.627 78.4735 188.018 78.5682 188.464 78.5682C188.764 78.5682 189.035 78.5265 189.277 78.4432C189.519 78.3561 189.73 78.2292 189.908 78.0625C190.086 77.8958 190.22 77.6894 190.311 77.4432L192.232 77.6591C192.11 78.1667 191.879 78.6098 191.538 78.9886C191.201 79.3636 190.769 79.6553 190.243 79.8636C189.716 80.0682 189.114 80.1705 188.436 80.1705ZM200.955 73.5795L199.08 73.7841C199.027 73.5947 198.934 73.4167 198.801 73.25C198.672 73.0833 198.498 72.9489 198.278 72.8466C198.059 72.7443 197.79 72.6932 197.472 72.6932C197.044 72.6932 196.684 72.786 196.392 72.9716C196.104 73.1572 195.962 73.3977 195.966 73.6932C195.962 73.947 196.055 74.1534 196.244 74.3125C196.438 74.4716 196.756 74.6023 197.199 74.7045L198.688 75.0227C199.513 75.2008 200.127 75.483 200.528 75.8693C200.934 76.2557 201.138 76.7614 201.142 77.3864C201.138 77.9356 200.977 78.4205 200.659 78.8409C200.345 79.2576 199.907 79.5833 199.347 79.8182C198.786 80.053 198.142 80.1705 197.415 80.1705C196.347 80.1705 195.487 79.947 194.835 79.5C194.184 79.0492 193.795 78.4223 193.67 77.6193L195.676 77.4261C195.767 77.8201 195.96 78.1174 196.256 78.3182C196.551 78.5189 196.936 78.6193 197.409 78.6193C197.898 78.6193 198.29 78.5189 198.585 78.3182C198.884 78.1174 199.034 77.8693 199.034 77.5739C199.034 77.3239 198.938 77.1174 198.744 76.9545C198.555 76.7917 198.259 76.6667 197.858 76.5795L196.369 76.267C195.532 76.0928 194.913 75.7992 194.511 75.3864C194.11 74.9697 193.911 74.4432 193.915 73.8068C193.911 73.2689 194.057 72.803 194.352 72.4091C194.652 72.0114 195.066 71.7045 195.597 71.4886C196.131 71.2689 196.746 71.1591 197.443 71.1591C198.466 71.1591 199.271 71.3769 199.858 71.8125C200.449 72.2481 200.814 72.8371 200.955 73.5795ZM207.196 71.2727V72.8636H202.179V71.2727H207.196ZM203.418 69.1818H205.474V77.375C205.474 77.6515 205.516 77.8636 205.599 78.0114C205.687 78.1553 205.8 78.2538 205.94 78.3068C206.08 78.3598 206.236 78.3864 206.406 78.3864C206.535 78.3864 206.652 78.3769 206.759 78.358C206.868 78.339 206.952 78.322 207.009 78.3068L207.355 79.9148C207.245 79.9527 207.088 79.9943 206.884 80.0398C206.683 80.0852 206.437 80.1117 206.145 80.1193C205.63 80.1345 205.166 80.0568 204.753 79.8864C204.34 79.7121 204.012 79.4432 203.77 79.0795C203.531 78.7159 203.414 78.2614 203.418 77.7159V69.1818ZM214.686 80L212.22 71.2727H214.317L215.851 77.4091H215.93L217.499 71.2727H219.572L221.141 77.375H221.226L222.737 71.2727H224.839L222.368 80H220.226L218.589 74.1023H218.47L216.834 80H214.686ZM229.889 80.1705C229.014 80.1705 228.259 79.9886 227.622 79.625C226.99 79.2576 226.503 78.7386 226.162 78.0682C225.821 77.3939 225.651 76.6004 225.651 75.6875C225.651 74.7898 225.821 74.0019 226.162 73.3239C226.507 72.642 226.988 72.1117 227.605 71.733C228.223 71.3504 228.948 71.1591 229.781 71.1591C230.319 71.1591 230.827 71.2462 231.304 71.4205C231.785 71.5909 232.209 71.8561 232.577 72.2159C232.948 72.5758 233.24 73.0341 233.452 73.5909C233.664 74.1439 233.77 74.803 233.77 75.5682V76.1989H226.616V74.8125H231.798C231.795 74.4186 231.709 74.0682 231.543 73.7614C231.376 73.4508 231.143 73.2064 230.844 73.0284C230.548 72.8504 230.204 72.7614 229.81 72.7614C229.389 72.7614 229.02 72.8636 228.702 73.0682C228.384 73.2689 228.135 73.5341 227.957 73.8636C227.783 74.1894 227.694 74.5473 227.69 74.9375V76.1477C227.69 76.6553 227.783 77.0909 227.969 77.4545C228.154 77.8144 228.414 78.0909 228.747 78.2841C229.08 78.4735 229.471 78.5682 229.918 78.5682C230.217 78.5682 230.488 78.5265 230.73 78.4432C230.973 78.3561 231.183 78.2292 231.361 78.0625C231.539 77.8958 231.673 77.6894 231.764 77.4432L233.685 77.6591C233.563 78.1667 233.332 78.6098 232.991 78.9886C232.654 79.3636 232.223 79.6553 231.696 79.8636C231.17 80.0682 230.567 80.1705 229.889 80.1705ZM235.601 80V68.3636H237.658V72.7159H237.743C237.849 72.5038 237.999 72.2784 238.192 72.0398C238.385 71.7973 238.646 71.5909 238.976 71.4205C239.305 71.2462 239.726 71.1591 240.237 71.1591C240.911 71.1591 241.519 71.3314 242.061 71.6761C242.607 72.017 243.038 72.5227 243.357 73.1932C243.679 73.8598 243.839 74.678 243.839 75.6477C243.839 76.6061 243.682 77.4205 243.368 78.0909C243.054 78.7614 242.625 79.2727 242.084 79.625C241.542 79.9773 240.929 80.1534 240.243 80.1534C239.743 80.1534 239.328 80.0701 238.999 79.9034C238.669 79.7367 238.404 79.536 238.203 79.3011C238.006 79.0625 237.853 78.8371 237.743 78.625H237.624V80H235.601ZM237.618 75.6364C237.618 76.2008 237.697 76.6951 237.857 77.1193C238.019 77.5436 238.252 77.875 238.555 78.1136C238.862 78.3485 239.233 78.4659 239.669 78.4659C240.124 78.4659 240.504 78.3447 240.811 78.1023C241.118 77.8561 241.349 77.5208 241.504 77.0966C241.663 76.6686 241.743 76.1818 241.743 75.6364C241.743 75.0947 241.665 74.6136 241.51 74.1932C241.355 73.7727 241.124 73.4432 240.817 73.2045C240.51 72.9659 240.127 72.8466 239.669 72.8466C239.23 72.8466 238.857 72.9621 238.55 73.1932C238.243 73.4242 238.01 73.7481 237.851 74.1648C237.696 74.5814 237.618 75.072 237.618 75.6364ZM252.486 73.5795L250.611 73.7841C250.558 73.5947 250.465 73.4167 250.332 73.25C250.204 73.0833 250.029 72.9489 249.81 72.8466C249.59 72.7443 249.321 72.6932 249.003 72.6932C248.575 72.6932 248.215 72.786 247.923 72.9716C247.635 73.1572 247.493 73.3977 247.497 73.6932C247.493 73.947 247.586 74.1534 247.776 74.3125C247.969 74.4716 248.287 74.6023 248.73 74.7045L250.219 75.0227C251.045 75.2008 251.658 75.483 252.06 75.8693C252.465 76.2557 252.67 76.7614 252.673 77.3864C252.67 77.9356 252.509 78.4205 252.19 78.8409C251.876 79.2576 251.438 79.5833 250.878 79.8182C250.317 80.053 249.673 80.1705 248.946 80.1705C247.878 80.1705 247.018 79.947 246.366 79.5C245.715 79.0492 245.327 78.4223 245.202 77.6193L247.207 77.4261C247.298 77.8201 247.491 78.1174 247.787 78.3182C248.082 78.5189 248.467 78.6193 248.94 78.6193C249.429 78.6193 249.821 78.5189 250.116 78.3182C250.416 78.1174 250.565 77.8693 250.565 77.5739C250.565 77.3239 250.469 77.1174 250.276 76.9545C250.086 76.7917 249.791 76.6667 249.389 76.5795L247.901 76.267C247.063 76.0928 246.444 75.7992 246.043 75.3864C245.641 74.9697 245.442 74.4432 245.446 73.8068C245.442 73.2689 245.588 72.803 245.884 72.4091C246.183 72.0114 246.598 71.7045 247.128 71.4886C247.662 71.2689 248.277 71.1591 248.974 71.1591C249.997 71.1591 250.802 71.3769 251.389 71.8125C251.98 72.2481 252.346 72.8371 252.486 73.5795ZM254.369 80V71.2727H256.426V80H254.369ZM255.403 70.0341C255.078 70.0341 254.797 69.9261 254.562 69.7102C254.328 69.4905 254.21 69.2273 254.21 68.9205C254.21 68.6098 254.328 68.3466 254.562 68.1307C254.797 67.911 255.078 67.8011 255.403 67.8011C255.733 67.8011 256.013 67.911 256.244 68.1307C256.479 68.3466 256.597 68.6098 256.597 68.9205C256.597 69.2273 256.479 69.4905 256.244 69.7102C256.013 69.9261 255.733 70.0341 255.403 70.0341ZM262.899 71.2727V72.8636H257.882V71.2727H262.899ZM259.121 69.1818H261.178V77.375C261.178 77.6515 261.219 77.8636 261.303 78.0114C261.39 78.1553 261.503 78.2538 261.643 78.3068C261.784 78.3598 261.939 78.3864 262.109 78.3864C262.238 78.3864 262.356 78.3769 262.462 78.358C262.571 78.339 262.655 78.322 262.712 78.3068L263.058 79.9148C262.948 79.9527 262.791 79.9943 262.587 80.0398C262.386 80.0852 262.14 80.1117 261.848 80.1193C261.333 80.1345 260.869 80.0568 260.456 79.8864C260.043 79.7121 259.715 79.4432 259.473 79.0795C259.234 78.7159 259.117 78.2614 259.121 77.7159V69.1818ZM268.389 80.1705C267.514 80.1705 266.759 79.9886 266.122 79.625C265.49 79.2576 265.003 78.7386 264.662 78.0682C264.321 77.3939 264.151 76.6004 264.151 75.6875C264.151 74.7898 264.321 74.0019 264.662 73.3239C265.007 72.642 265.488 72.1117 266.105 71.733C266.723 71.3504 267.448 71.1591 268.281 71.1591C268.819 71.1591 269.327 71.2462 269.804 71.4205C270.285 71.5909 270.709 71.8561 271.077 72.2159C271.448 72.5758 271.74 73.0341 271.952 73.5909C272.164 74.1439 272.27 74.803 272.27 75.5682V76.1989H265.116V74.8125H270.298C270.295 74.4186 270.209 74.0682 270.043 73.7614C269.876 73.4508 269.643 73.2064 269.344 73.0284C269.048 72.8504 268.704 72.7614 268.31 72.7614C267.889 72.7614 267.52 72.8636 267.202 73.0682C266.884 73.2689 266.635 73.5341 266.457 73.8636C266.283 74.1894 266.194 74.5473 266.19 74.9375V76.1477C266.19 76.6553 266.283 77.0909 266.469 77.4545C266.654 77.8144 266.914 78.0909 267.247 78.2841C267.58 78.4735 267.971 78.5682 268.418 78.5682C268.717 78.5682 268.988 78.5265 269.23 78.4432C269.473 78.3561 269.683 78.2292 269.861 78.0625C270.039 77.8958 270.173 77.6894 270.264 77.4432L272.185 77.6591C272.063 78.1667 271.832 78.6098 271.491 78.9886C271.154 79.3636 270.723 79.6553 270.196 79.8636C269.67 80.0682 269.067 80.1705 268.389 80.1705ZM281.842 80.1705C280.967 80.1705 280.212 79.9886 279.575 79.625C278.943 79.2576 278.456 78.7386 278.115 78.0682C277.774 77.3939 277.604 76.6004 277.604 75.6875C277.604 74.7898 277.774 74.0019 278.115 73.3239C278.46 72.642 278.941 72.1117 279.558 71.733C280.176 71.3504 280.901 71.1591 281.734 71.1591C282.272 71.1591 282.78 71.2462 283.257 71.4205C283.738 71.5909 284.162 71.8561 284.53 72.2159C284.901 72.5758 285.193 73.0341 285.405 73.5909C285.617 74.1439 285.723 74.803 285.723 75.5682V76.1989H278.57V74.8125H283.751C283.748 74.4186 283.662 74.0682 283.496 73.7614C283.329 73.4508 283.096 73.2064 282.797 73.0284C282.501 72.8504 282.157 72.7614 281.763 72.7614C281.342 72.7614 280.973 72.8636 280.655 73.0682C280.337 73.2689 280.089 73.5341 279.911 73.8636C279.736 74.1894 279.647 74.5473 279.643 74.9375V76.1477C279.643 76.6553 279.736 77.0909 279.922 77.4545C280.107 77.8144 280.367 78.0909 280.7 78.2841C281.034 78.4735 281.424 78.5682 281.871 78.5682C282.17 78.5682 282.441 78.5265 282.683 78.4432C282.926 78.3561 283.136 78.2292 283.314 78.0625C283.492 77.8958 283.626 77.6894 283.717 77.4432L285.638 77.6591C285.517 78.1667 285.286 78.6098 284.945 78.9886C284.607 79.3636 284.176 79.6553 283.649 79.8636C283.123 80.0682 282.52 80.1705 281.842 80.1705ZM295.009 71.2727L291.901 80H289.628L286.52 71.2727H288.713L290.719 77.7557H290.81L292.821 71.2727H295.009ZM299.999 80.1705C299.124 80.1705 298.368 79.9886 297.732 79.625C297.099 79.2576 296.612 78.7386 296.271 78.0682C295.93 77.3939 295.76 76.6004 295.76 75.6875C295.76 74.7898 295.93 74.0019 296.271 73.3239C296.616 72.642 297.097 72.1117 297.714 71.733C298.332 71.3504 299.057 71.1591 299.891 71.1591C300.429 71.1591 300.936 71.2462 301.413 71.4205C301.894 71.5909 302.319 71.8561 302.686 72.2159C303.057 72.5758 303.349 73.0341 303.561 73.5909C303.773 74.1439 303.879 74.803 303.879 75.5682V76.1989H296.726V74.8125H301.908C301.904 74.4186 301.819 74.0682 301.652 73.7614C301.485 73.4508 301.252 73.2064 300.953 73.0284C300.658 72.8504 300.313 72.7614 299.919 72.7614C299.499 72.7614 299.129 72.8636 298.811 73.0682C298.493 73.2689 298.245 73.5341 298.067 73.8636C297.893 74.1894 297.804 74.5473 297.8 74.9375V76.1477C297.8 76.6553 297.893 77.0909 298.078 77.4545C298.264 77.8144 298.523 78.0909 298.857 78.2841C299.19 78.4735 299.58 78.5682 300.027 78.5682C300.326 78.5682 300.597 78.5265 300.839 78.4432C301.082 78.3561 301.292 78.2292 301.47 78.0625C301.648 77.8958 301.783 77.6894 301.874 77.4432L303.794 77.6591C303.673 78.1667 303.442 78.6098 303.101 78.9886C302.764 79.3636 302.332 79.6553 301.805 79.8636C301.279 80.0682 300.677 80.1705 299.999 80.1705ZM305.619 80V71.2727H307.614V72.7273H307.705C307.864 72.2235 308.136 71.8352 308.523 71.5625C308.913 71.286 309.358 71.1477 309.858 71.1477C309.972 71.1477 310.098 71.1534 310.239 71.1648C310.383 71.1723 310.502 71.1856 310.597 71.2045V73.0966C310.509 73.0663 310.371 73.0398 310.182 73.017C309.996 72.9905 309.816 72.9773 309.642 72.9773C309.267 72.9773 308.93 73.0587 308.631 73.2216C308.335 73.3807 308.102 73.6023 307.932 73.8864C307.761 74.1705 307.676 74.4981 307.676 74.8693V80H305.619ZM315.932 80V71.2727H317.898V72.7557H318C318.182 72.2557 318.483 71.8655 318.903 71.5852C319.324 71.3011 319.826 71.1591 320.409 71.1591C321 71.1591 321.498 71.303 321.903 71.5909C322.313 71.875 322.6 72.2633 322.767 72.7557H322.858C323.051 72.2708 323.377 71.8845 323.835 71.5966C324.297 71.3049 324.845 71.1591 325.477 71.1591C326.28 71.1591 326.936 71.4129 327.443 71.9205C327.951 72.428 328.205 73.1686 328.205 74.142V80H326.142V74.4602C326.142 73.9186 325.998 73.5227 325.71 73.2727C325.422 73.0189 325.07 72.892 324.653 72.892C324.157 72.892 323.769 73.0473 323.489 73.358C323.212 73.6648 323.074 74.0644 323.074 74.5568V80H321.057V74.375C321.057 73.9242 320.92 73.5644 320.648 73.2955C320.379 73.0265 320.027 72.892 319.591 72.892C319.295 72.892 319.027 72.9678 318.784 73.1193C318.542 73.267 318.348 73.4773 318.205 73.75C318.061 74.0189 317.989 74.3333 317.989 74.6932V80H315.932ZM332.803 80.1761C332.25 80.1761 331.751 80.0777 331.308 79.8807C330.869 79.6799 330.52 79.3845 330.263 78.9943C330.009 78.6042 329.882 78.1231 329.882 77.5511C329.882 77.0587 329.973 76.6515 330.155 76.3295C330.337 76.0076 330.585 75.75 330.899 75.5568C331.214 75.3636 331.568 75.2178 331.962 75.1193C332.359 75.017 332.77 74.9432 333.195 74.8977C333.706 74.8447 334.121 74.7973 334.439 74.7557C334.757 74.7102 334.988 74.642 335.132 74.5511C335.28 74.4564 335.354 74.3106 335.354 74.1136V74.0795C335.354 73.6515 335.227 73.3201 334.973 73.0852C334.719 72.8504 334.354 72.733 333.876 72.733C333.373 72.733 332.973 72.8428 332.678 73.0625C332.386 73.2822 332.189 73.5417 332.087 73.8409L330.166 73.5682C330.318 73.0379 330.568 72.5947 330.916 72.2386C331.265 71.8788 331.691 71.6098 332.195 71.4318C332.698 71.25 333.255 71.1591 333.865 71.1591C334.286 71.1591 334.704 71.2083 335.121 71.3068C335.537 71.4053 335.918 71.5682 336.263 71.7955C336.607 72.0189 336.884 72.3239 337.092 72.7102C337.304 73.0966 337.411 73.5795 337.411 74.1591V80H335.433V78.8011H335.365C335.24 79.0436 335.064 79.2708 334.837 79.483C334.613 79.6913 334.331 79.8598 333.99 79.9886C333.653 80.1136 333.257 80.1761 332.803 80.1761ZM333.337 78.6648C333.75 78.6648 334.107 78.5833 334.411 78.4205C334.714 78.2538 334.946 78.0341 335.109 77.7614C335.276 77.4886 335.359 77.1913 335.359 76.8693V75.8409C335.295 75.8939 335.185 75.9432 335.03 75.9886C334.878 76.0341 334.708 76.0739 334.518 76.108C334.329 76.142 334.142 76.1723 333.956 76.1989C333.77 76.2254 333.609 76.2481 333.473 76.267C333.166 76.3087 332.892 76.3769 332.649 76.4716C332.407 76.5663 332.215 76.6989 332.075 76.8693C331.935 77.036 331.865 77.2519 331.865 77.517C331.865 77.8958 332.003 78.1818 332.28 78.375C332.556 78.5682 332.909 78.6648 333.337 78.6648ZM342.717 80.1534C342.032 80.1534 341.418 79.9773 340.876 79.625C340.335 79.2727 339.907 78.7614 339.592 78.0909C339.278 77.4205 339.121 76.6061 339.121 75.6477C339.121 74.678 339.28 73.8598 339.598 73.1932C339.92 72.5227 340.354 72.017 340.899 71.6761C341.445 71.3314 342.053 71.1591 342.723 71.1591C343.234 71.1591 343.655 71.2462 343.984 71.4205C344.314 71.5909 344.575 71.7973 344.768 72.0398C344.962 72.2784 345.111 72.5038 345.217 72.7159H345.303V68.3636H347.365V80H345.342V78.625H345.217C345.111 78.8371 344.958 79.0625 344.757 79.3011C344.556 79.536 344.291 79.7367 343.962 79.9034C343.632 80.0701 343.217 80.1534 342.717 80.1534ZM343.291 78.4659C343.727 78.4659 344.098 78.3485 344.405 78.1136C344.712 77.875 344.945 77.5436 345.104 77.1193C345.263 76.6951 345.342 76.2008 345.342 75.6364C345.342 75.072 345.263 74.5814 345.104 74.1648C344.948 73.7481 344.717 73.4242 344.411 73.1932C344.107 72.9621 343.734 72.8466 343.291 72.8466C342.833 72.8466 342.45 72.9659 342.143 73.2045C341.837 73.4432 341.606 73.7727 341.45 74.1932C341.295 74.6136 341.217 75.0947 341.217 75.6364C341.217 76.1818 341.295 76.6686 341.45 77.0966C341.609 77.5208 341.842 77.8561 342.149 78.1023C342.46 78.3447 342.84 78.4659 343.291 78.4659ZM353.42 80.1705C352.545 80.1705 351.79 79.9886 351.153 79.625C350.521 79.2576 350.034 78.7386 349.693 78.0682C349.352 77.3939 349.182 76.6004 349.182 75.6875C349.182 74.7898 349.352 74.0019 349.693 73.3239C350.038 72.642 350.519 72.1117 351.136 71.733C351.754 71.3504 352.479 71.1591 353.312 71.1591C353.85 71.1591 354.358 71.2462 354.835 71.4205C355.316 71.5909 355.741 71.8561 356.108 72.2159C356.479 72.5758 356.771 73.0341 356.983 73.5909C357.195 74.1439 357.301 74.803 357.301 75.5682V76.1989H350.148V74.8125H355.33C355.326 74.4186 355.241 74.0682 355.074 73.7614C354.907 73.4508 354.674 73.2064 354.375 73.0284C354.08 72.8504 353.735 72.7614 353.341 72.7614C352.92 72.7614 352.551 72.8636 352.233 73.0682C351.915 73.2689 351.667 73.5341 351.489 73.8636C351.314 74.1894 351.225 74.5473 351.222 74.9375V76.1477C351.222 76.6553 351.314 77.0909 351.5 77.4545C351.686 77.8144 351.945 78.0909 352.278 78.2841C352.612 78.4735 353.002 78.5682 353.449 78.5682C353.748 78.5682 354.019 78.5265 354.261 78.4432C354.504 78.3561 354.714 78.2292 354.892 78.0625C355.07 77.8958 355.205 77.6894 355.295 77.4432L357.216 77.6591C357.095 78.1667 356.864 78.6098 356.523 78.9886C356.186 79.3636 355.754 79.6553 355.227 79.8636C354.701 80.0682 354.098 80.1705 353.42 80.1705Z" fill="black"/>
<rect x="45" y="64" width="110" height="127" rx="5" fill="#0F6AF3"/>
<path d="M48.5 50.618L51.9535 61.2467L52.0657 61.5922H52.429L63.6046 61.5922L54.5634 68.1611L54.2695 68.3746L54.3817 68.7201L57.8352 79.3488L48.7939 72.7799L48.5 72.5664L48.2061 72.7799L39.1648 79.3488L42.6183 68.7201L42.7305 68.3746L42.4366 68.1611L33.3954 61.5922L44.571 61.5922H44.9343L45.0465 61.2467L48.5 50.618Z" fill="#FF0000" stroke="black"/>
<rect x="173" y="96" width="181" height="15" fill="#D9D9D9"/>
<rect x="173" y="119" width="181" height="15" fill="#D9D9D9"/>
<rect x="173" y="143" width="107" height="15" fill="#D9D9D9"/>
</svg>
