<svg width="375" height="220" viewBox="0 0 375 220" fill="none" xmlns="http://www.w3.org/2000/svg">
<rect width="375" height="220" fill="#FF0000"/>
<path d="M1.125 29V11.5455H8.69318C10.0227 11.5455 11.1392 11.7244 12.0426 12.0824C12.9517 12.4403 13.6364 12.946 14.0966 13.5994C14.5625 14.2528 14.7955 15.0227 14.7955 15.9091C14.7955 16.5511 14.6534 17.1364 14.3693 17.6648C14.0909 18.1932 13.6989 18.6364 13.1932 18.9943C12.6875 19.3466 12.0966 19.5909 11.4205 19.7273V19.8977C12.1705 19.9261 12.8523 20.1165 13.4659 20.4688C14.0795 20.8153 14.5682 21.2955 14.9318 21.9091C15.2955 22.517 15.4773 23.233 15.4773 24.0568C15.4773 25.0114 15.2273 25.8608 14.7273 26.6051C14.233 27.3494 13.5284 27.9347 12.6136 28.3608C11.6989 28.7869 10.608 29 9.34091 29H1.125ZM5.86364 25.2159H8.07955C8.875 25.2159 9.47159 25.0682 9.86932 24.7727C10.267 24.4716 10.4659 24.0284 10.4659 23.4432C10.4659 23.0341 10.3722 22.6875 10.1847 22.4034C9.99716 22.1193 9.73011 21.9034 9.38352 21.7557C9.04261 21.608 8.63068 21.5341 8.14773 21.5341H5.86364V25.2159ZM5.86364 18.6023H7.80682C8.22159 18.6023 8.58807 18.5369 8.90625 18.4062C9.22443 18.2756 9.47159 18.0881 9.64773 17.8438C9.82955 17.5938 9.92045 17.2898 9.92045 16.9318C9.92045 16.392 9.72727 15.9801 9.34091 15.696C8.95455 15.4062 8.46591 15.2614 7.875 15.2614H5.86364V18.6023ZM17.1562 29V11.5455H29.7358V15.3636H21.8949V18.3636H29.0881V22.1818H21.8949V25.1818H29.7017V29H17.1562ZM41.495 17C41.4496 16.4318 41.2365 15.9886 40.8558 15.6705C40.4808 15.3523 39.9098 15.1932 39.1428 15.1932C38.6541 15.1932 38.2536 15.2528 37.9411 15.3722C37.6342 15.4858 37.407 15.642 37.2592 15.8409C37.1115 16.0398 37.0348 16.267 37.0291 16.5227C37.0178 16.733 37.0547 16.9233 37.1399 17.0938C37.2308 17.2585 37.3729 17.4091 37.5661 17.5455C37.7592 17.6761 38.0064 17.7955 38.3075 17.9034C38.6087 18.0114 38.9666 18.108 39.3814 18.1932L40.8132 18.5C41.7791 18.7045 42.6058 18.9744 43.2933 19.3097C43.9808 19.6449 44.5433 20.0398 44.9808 20.4943C45.4183 20.9432 45.7393 21.4489 45.9439 22.0114C46.1541 22.5739 46.2621 23.1875 46.2678 23.8523C46.2621 25 45.9751 25.9716 45.407 26.767C44.8388 27.5625 44.0263 28.1676 42.9695 28.5824C41.9183 28.9972 40.6541 29.2045 39.1768 29.2045C37.6598 29.2045 36.3359 28.9801 35.2053 28.5312C34.0803 28.0824 33.2053 27.392 32.5803 26.4602C31.9609 25.5227 31.6484 24.3239 31.6428 22.8636H36.1428C36.1712 23.3977 36.3047 23.8466 36.5433 24.2102C36.782 24.5739 37.1172 24.8494 37.549 25.0369C37.9865 25.2244 38.5064 25.3182 39.1087 25.3182C39.6143 25.3182 40.0376 25.2557 40.3786 25.1307C40.7195 25.0057 40.978 24.8324 41.1541 24.6108C41.3303 24.3892 41.4212 24.1364 41.4268 23.8523C41.4212 23.5852 41.3331 23.3523 41.1626 23.1534C40.9979 22.9489 40.7251 22.767 40.3445 22.608C39.9638 22.4432 39.4496 22.2898 38.8018 22.1477L37.0632 21.7727C35.5178 21.4375 34.299 20.8778 33.407 20.0938C32.5206 19.304 32.0803 18.2273 32.0859 16.8636C32.0803 15.7557 32.3757 14.7869 32.9723 13.9574C33.5746 13.1222 34.407 12.4716 35.4695 12.0057C36.5376 11.5398 37.7621 11.3068 39.1428 11.3068C40.5518 11.3068 41.7706 11.5426 42.799 12.0142C43.8274 12.4858 44.62 13.1506 45.1768 14.0085C45.7393 14.8608 46.0234 15.858 46.0291 17H41.495ZM47.593 15.3636V11.5455H62.7635V15.3636H57.5135V29H52.843V15.3636H47.593ZM73.7599 29L68.6122 11.5455H73.8963L76.2827 22.2841H76.419L79.2486 11.5455H83.4077L86.2372 22.3182H86.3736L88.7599 11.5455H94.044L88.8963 29H84.3622L81.3963 19.25H81.2599L78.294 29H73.7599ZM95.5781 29V11.5455H108.158V15.3636H100.317V18.3636H107.51V22.1818H100.317V25.1818H108.124V29H95.5781ZM110.508 29V11.5455H118.076C119.406 11.5455 120.522 11.7244 121.425 12.0824C122.335 12.4403 123.019 12.946 123.479 13.5994C123.945 14.2528 124.178 15.0227 124.178 15.9091C124.178 16.5511 124.036 17.1364 123.752 17.6648C123.474 18.1932 123.082 18.6364 122.576 18.9943C122.07 19.3466 121.479 19.5909 120.803 19.7273V19.8977C121.553 19.9261 122.235 20.1165 122.849 20.4688C123.462 20.8153 123.951 21.2955 124.315 21.9091C124.678 22.517 124.86 23.233 124.86 24.0568C124.86 25.0114 124.61 25.8608 124.11 26.6051C123.616 27.3494 122.911 27.9347 121.996 28.3608C121.082 28.7869 119.991 29 118.724 29H110.508ZM115.246 25.2159H117.462C118.258 25.2159 118.854 25.0682 119.252 24.7727C119.65 24.4716 119.849 24.0284 119.849 23.4432C119.849 23.0341 119.755 22.6875 119.567 22.4034C119.38 22.1193 119.113 21.9034 118.766 21.7557C118.425 21.608 118.013 21.5341 117.531 21.5341H115.246V25.2159ZM115.246 18.6023H117.19C117.604 18.6023 117.971 18.5369 118.289 18.4062C118.607 18.2756 118.854 18.0881 119.031 17.8438C119.212 17.5938 119.303 17.2898 119.303 16.9318C119.303 16.392 119.11 15.9801 118.724 15.696C118.337 15.4062 117.849 15.2614 117.258 15.2614H115.246V18.6023ZM135.948 17C135.903 16.4318 135.69 15.9886 135.309 15.6705C134.934 15.3523 134.363 15.1932 133.596 15.1932C133.107 15.1932 132.707 15.2528 132.394 15.3722C132.087 15.4858 131.86 15.642 131.712 15.8409C131.565 16.0398 131.488 16.267 131.482 16.5227C131.471 16.733 131.508 16.9233 131.593 17.0938C131.684 17.2585 131.826 17.4091 132.019 17.5455C132.212 17.6761 132.46 17.7955 132.761 17.9034C133.062 18.0114 133.42 18.108 133.835 18.1932L135.266 18.5C136.232 18.7045 137.059 18.9744 137.746 19.3097C138.434 19.6449 138.996 20.0398 139.434 20.4943C139.871 20.9432 140.192 21.4489 140.397 22.0114C140.607 22.5739 140.715 23.1875 140.721 23.8523C140.715 25 140.428 25.9716 139.86 26.767C139.292 27.5625 138.479 28.1676 137.423 28.5824C136.371 28.9972 135.107 29.2045 133.63 29.2045C132.113 29.2045 130.789 28.9801 129.658 28.5312C128.533 28.0824 127.658 27.392 127.033 26.4602C126.414 25.5227 126.102 24.3239 126.096 22.8636H130.596C130.624 23.3977 130.758 23.8466 130.996 24.2102C131.235 24.5739 131.57 24.8494 132.002 25.0369C132.44 25.2244 132.96 25.3182 133.562 25.3182C134.067 25.3182 134.491 25.2557 134.832 25.1307C135.173 25.0057 135.431 24.8324 135.607 24.6108C135.783 24.3892 135.874 24.1364 135.88 23.8523C135.874 23.5852 135.786 23.3523 135.616 23.1534C135.451 22.9489 135.178 22.767 134.798 22.608C134.417 22.4432 133.903 22.2898 133.255 22.1477L131.516 21.7727C129.971 21.4375 128.752 20.8778 127.86 20.0938C126.974 19.304 126.533 18.2273 126.539 16.8636C126.533 15.7557 126.829 14.7869 127.425 13.9574C128.028 13.1222 128.86 12.4716 129.923 12.0057C130.991 11.5398 132.215 11.3068 133.596 11.3068C135.005 11.3068 136.224 11.5426 137.252 12.0142C138.281 12.4858 139.073 13.1506 139.63 14.0085C140.192 14.8608 140.477 15.858 140.482 17H135.948ZM147.262 11.5455V29H142.523V11.5455H147.262ZM149.031 15.3636V11.5455H164.201V15.3636H158.951V29H154.281V15.3636H149.031ZM165.984 29V11.5455H178.564V15.3636H170.723V18.3636H177.916V22.1818H170.723V25.1818H178.53V29H165.984ZM185.695 29V11.5455H198.275V15.3636H190.434V18.3636H197.627V22.1818H190.434V25.1818H198.241V29H185.695ZM205.398 11.5455L208.977 23.8523H209.114L212.693 11.5455H218.045L212.284 29H205.807L200.045 11.5455H205.398ZM219.727 29V11.5455H232.306V15.3636H224.465V18.3636H231.658V22.1818H224.465V25.1818H232.272V29H219.727ZM234.656 29V11.5455H242.19C243.486 11.5455 244.619 11.7812 245.591 12.2528C246.563 12.7244 247.318 13.4034 247.858 14.2898C248.398 15.1761 248.668 16.2386 248.668 17.4773C248.668 18.7273 248.389 19.7812 247.832 20.6392C247.281 21.4972 246.506 22.1449 245.506 22.5824C244.511 23.0199 243.349 23.2386 242.02 23.2386H237.52V19.5568H241.065C241.622 19.5568 242.097 19.4886 242.489 19.3523C242.886 19.2102 243.19 18.9858 243.401 18.679C243.616 18.3722 243.724 17.9716 243.724 17.4773C243.724 16.9773 243.616 16.571 243.401 16.2585C243.19 15.9403 242.886 15.7074 242.489 15.5597C242.097 15.4062 241.622 15.3295 241.065 15.3295H239.395V29H234.656ZM244.884 20.9886L249.247 29H244.099L239.838 20.9886H244.884ZM255.469 11.5455H261.366L265.423 21.4318H265.628L269.685 11.5455H275.582V29H270.946V18.9091H270.81L266.923 28.8636H264.128L260.241 18.8409H260.105V29H255.469V11.5455ZM282.362 29H277.249L283.01 11.5455H289.487L295.249 29H290.135L286.317 16.3523H286.18L282.362 29ZM281.408 22.1136H291.021V25.6591H281.408V22.1136ZM303.646 29H296.93V11.5455H303.577C305.373 11.5455 306.924 11.8949 308.231 12.5938C309.543 13.2869 310.555 14.2869 311.265 15.5938C311.981 16.8949 312.339 18.4545 312.339 20.2727C312.339 22.0909 311.984 23.6534 311.273 24.9602C310.563 26.2614 309.558 27.2614 308.256 27.9602C306.955 28.6534 305.418 29 303.646 29ZM301.668 24.9773H303.475C304.339 24.9773 305.075 24.8381 305.683 24.5597C306.296 24.2812 306.762 23.8011 307.08 23.1193C307.404 22.4375 307.566 21.4886 307.566 20.2727C307.566 19.0568 307.401 18.108 307.072 17.4261C306.748 16.7443 306.271 16.2642 305.64 15.9858C305.015 15.7074 304.248 15.5682 303.339 15.5682H301.668V24.9773ZM314.531 29V11.5455H327.111V15.3636H319.27V18.3636H326.463V22.1818H319.27V25.1818H327.077V29H314.531Z" fill="black"/>
<rect x="98.5" y="82.5" width="301" height="157" fill="white" stroke="black"/>
<rect y="26" width="151" height="174" fill="#0F6AF3"/>
<path d="M75 142L85.1031 173.094H117.798L91.3472 192.312L101.45 223.406L75 204.188L48.5497 223.406L58.6528 192.312L32.2025 173.094H64.8969L75 142Z" fill="#FFC806"/>
<rect x="200" y="117" width="181" height="15" fill="#D9D9D9"/>
<rect x="200" y="142" width="181" height="49" fill="#D9D9D9"/>
</svg>
